<svg id="Layer_1" xmlns="http://www.w3.org/2000/svg" viewBox="0 0 24 24"><defs><style>.cls-1{fill:#292929}</style></defs><path class="cls-1" d="M22.51 8.19c0-.21-.09-.39-.22-.53v-.02h-.01s-.01 0-.02-.01l-.09-.09-5.69-5.69s-.04-.06-.07-.09c0 0-.01 0-.02-.02a.8.8 0 0 0-.55-.24H8.15l-.8.8v3.14c.25-.03.51-.05.77-.05.28 0 .56.02.83.06V3.1h6.08v5.1l.8.8h5.1v8.47h-4.51v1.59h5.31l.8-.8V8.2ZM16.6 4.22l3.17 3.18H16.6z"/><path class="cls-1" d="M13.71 13.45h-.96v-1.96c0-1.24-.48-2.41-1.36-3.29a4.55 4.55 0 0 0-2.46-1.28 4 4 0 0 0-.83-.08c-.26 0-.52.02-.77.07-.95.15-1.82.59-2.52 1.29-.88.88-1.37 2.05-1.37 3.29v1.96h-.95l-.07.07-1.1 1.1-.08.07v6.81l.08.08 1.1 1.1.07.07h11.22l.07-.07 1.1-1.1.07-.08v-6.81zm-8.66-1.96c0-.81.31-1.58.89-2.15.39-.39.87-.67 1.39-.8a3 3 0 0 1 1.6.02c.49.14.95.4 1.33.78.57.57.89 1.34.89 2.15v1.96h-6.1zm8.3 9.66H2.84v-6.1h10.51z"/></svg>