<svg fill="#292929" viewBox="-2 -2 24 24" xmlns="http://www.w3.org/2000/svg"><g fill="#292929"><path d="m15.6656.376176c.4954-.501568 1.1889-.501568 1.6842 0l2.2787 2.307214c.4953.50156.4953 1.20376 0 1.70532l-3.6657 3.61129-3.9628-4.01254z"/><path d="m10.9933 5 4.0067 4.00668-10.6177 10.61772c-.50083.5008-1.202.5008-1.70283 0l-2.303844-2.3039c-.500835-.5008-.500835-1.202 0-1.7028z"/><path d="m16 13c0-.6.4-1 1-1s1 .4 1 1 .4 1 1 1 1 .4 1 1-.4 1-1 1-1 .4-1 1-.4 1-1 1-1-.4-1-1-.4-1-1-1-1-.4-1-1 .4-1 1-1 1-.4 1-1z"/><path d="m4 1c0-.6.4-1 1-1s1 .4 1 1 .4 1 1 1 1 .4 1 1-.4 1-1 1-1 .4-1 1-.4 1-1 1-1-.4-1-1-.4-1-1-1-1-.4-1-1 .4-1 1-1 1-.4 1-1z"/></g></svg>