<svg fill="#292929" viewBox="-2 -2 24 24" xmlns="http://www.w3.org/2000/svg"><path d="m1.49335 2.87876c2.26396-.31661 5.26376-1.26307 7.63466-2.645813.53154-.3100072 1.19399-.3097539 1.72809-.004272 2.3684 1.354485 5.502 2.291065 7.65 2.628175.8181.12838 1.4909.80968 1.4914 1.63809l.0002.50108c.0305 6.04268-.48 11.33188-9.4724 14.90338-.3378.1342-.72402.1341-1.06183-.0001-8.984976-3.5715-9.4927458-8.8607-9.46231903-14.90328l-.00113443-.49678c-.00189556-.83009.67156346-1.50555 1.49333346-1.62048zm9.21375 6.41413c-.1875-.18754-.4419-.29289-.7071-.29289-.26522 0-.51957.10535-.70711.29289s-.29289.44189-.29289.70711c0 .2652.10535.5196.29289.7071s.44189.2929.70711.2929c.2652 0 .5196-.1054.7071-.2929s.2929-.4419.2929-.7071c0-.26522-.1054-.51957-.2929-.70711zm-4 0c-.18753-.18754-.44189-.29289-.7071-.29289-.26522 0-.51957.10535-.70711.29289s-.29289.44189-.29289.70711c0 .2652.10535.5196.29289.7071s.44189.2929.70711.2929c.26521 0 .51957-.1054.7071-.2929.18754-.1875.2929-.4419.2929-.7071 0-.26522-.10536-.51957-.2929-.70711zm8 0c-.1875-.18754-.4419-.29289-.7071-.29289s-.5196.10535-.7071.29289-.2929.44189-.2929.70711c0 .2652.1054.5196.2929.7071s.4419.2929.7071.2929.5196-.1054.7071-.2929.2929-.4419.2929-.7071c0-.26522-.1054-.51957-.2929-.70711z" fill="#292929" fill-rule="evenodd"/></svg>